# xmcd
#
# Track frame offsets:
#	150
#	22050
#	34425
#	64500
#	77175
#	105375
#	128138
#	149363
#	162488
#	201188
#	232575
#	270075
#	291750
#	331755
#
# Disc length: 4569 seconds
#
# Revision: 1
# Processed by: cddbd v1.5.2PL0 Copyright (c) Steve Scherf et al.
# Submitted via: audiograbber 1.83.01
#
DISCID=bc11d70e
DTITLE=Dr. Leon W. Couch III / Hamgurger Rhetorik
DYEAR=2007
DGENRE=
TTITLE0=Praeludium in C BuxWV137  Dietrich Buxtehude
TTITLE1= Vater Unser im Himmelreich  Heinrich Scheidemann
TTITLE2=Praeludium in g, BuxWV148  Dietrich Buxtehude
TTITLE3=Vater Unser im Himmelrieich BuxWV214  Dietrich Buxtehude
TTITLE4=Praeludium in d, BuxWV140 Dietrich Buxtehude
TTITLE5=Vater Unser im Himmelreich  Georg Bohm
TTITLE6=Praembulum in G  Vincent Lubeck 
TTITLE7=Vater Unser im Himmelreich  BWV 762  Johann Sebastian Bach
TTITLE8=Praelusium in e  Nichols Bruhns
TTITLE9=Vater Unser im Himmelreich BWV 682  Johan  Sebastian Bach
TTITLE10=Toccata in F MWV 540  Johann Sebastian Bach
TTITLE11=Fugue in F BWV540  Johann Sebastian Bach
TTITLE12=Choral & Variations from Sonata No. 6 in d Minor, Op 65/6 Felix Mendel
TTITLE12=ssohn
TTITLE13=Fugue from Sonata No 6 in d minor, Op 65/6 Felix Mednelssohn
EXTD=
EXTT0=
EXTT1=
EXTT2=
EXTT3=
EXTT4=
EXTT5=
EXTT6=
EXTT7=
EXTT8=
EXTT9=
EXTT10=
EXTT11=
EXTT12=
EXTT13=
PLAYORDER=
.
